<svg xmlns="http://www.w3.org/2000/svg" width="1600" height="900" viewBox="0 0 1600 900" role="img" aria-label="Atlas Geospatial Solutions hero">
  <defs>
    <linearGradient id="hbg" x1="0" y1="0" x2="1" y2="1">
      <stop offset="0" stop-color="#0b1120"/>
      <stop offset="0.6" stop-color="#0e1a2b"/>
      <stop offset="1" stop-color="#0a1422"/>
    </linearGradient>
  </defs>
  <rect width="1600" height="900" fill="url(#hbg)"/>
  <g fill="none" stroke="#15263b" stroke-width="2">
    <path d="M0 150 H1600 M0 300 H1600 M0 450 H1600 M0 600 H1600 M0 750 H1600"/>
    <path d="M200 0 V900 M400 0 V900 M600 0 V900 M800 0 V900 M1000 0 V900 M1200 0 V900 M1400 0 V900"/>
  </g>
  <g fill="none" stroke="#22d3ee" stroke-width="2" opacity="0.35">
    <path d="M120 760 L420 480 L700 580 L980 320 L1280 420 L1480 220"/>
  </g>
  <g fill="#22d3ee" opacity="0.5">
    <circle cx="420" cy="480" r="7"/>
    <circle cx="700" cy="580" r="7"/>
    <circle cx="980" cy="320" r="7"/>
    <circle cx="1280" cy="420" r="7"/>
    <circle cx="1480" cy="220" r="7"/>
  </g>
  <circle cx="1180" cy="300" r="160" fill="none" stroke="#0ea5e9" stroke-width="3" opacity="0.4"/>
  <circle cx="1180" cy="300" r="110" fill="none" stroke="#0ea5e9" stroke-width="2" opacity="0.25"/>
  <path d="M1120 300 L1240 300 M1180 240 L1180 360" stroke="#0ea5e9" stroke-width="2" opacity="0.3"/>
</svg>
